<svg width="22" height="22" viewBox="0 0 22 22" fill="none" xmlns="http://www.w3.org/2000/svg">
<g clip-path="url(#clip0_10532_544)">
<circle cx="11" cy="11" r="11" fill="black"/>
<path d="M20.4482 10.527H16.628C16.5872 9.11297 16.3633 7.75546 15.9776 6.5346C16.7806 6.28653 17.3961 6.03085 17.7779 5.8561C18.263 6.49386 18.6613 7.201 18.9527 7.96122C19.2691 7.85321 19.5653 7.74442 19.8415 7.63695C19.4757 6.67807 18.957 5.79461 18.3171 5.01416C18.2955 4.97974 18.2706 4.94873 18.2419 4.92167C16.5058 2.85544 13.9037 1.53998 11 1.53998C8.09634 1.53998 5.49353 2.85571 3.7571 4.92245C3.72924 4.94899 3.70454 4.97948 3.68325 5.01311C3.04313 5.79409 2.52414 6.67781 2.15809 7.63695C1.8128 8.54248 1.60205 9.51371 1.55186 10.527C1.54398 10.6836 1.54004 10.8413 1.54004 11C1.54004 11.1587 1.54424 11.3164 1.55186 11.473H5.37213C5.41286 12.887 5.63674 14.2442 6.0225 15.4651C5.21945 15.7132 4.60377 15.9688 4.22221 16.1436C3.73712 15.5058 3.33849 14.7984 3.04707 14.0385C2.73069 14.1465 2.43453 14.2553 2.15836 14.363C2.5244 15.3221 3.04339 16.2059 3.68325 16.9868C3.70454 17.0207 3.72898 17.0512 3.7571 17.0778C5.49353 19.1442 8.09582 20.46 11 20.46C13.9043 20.46 16.5018 19.1466 18.2385 17.0833C18.2708 17.0533 18.2992 17.0186 18.3229 16.9792C18.9601 16.2001 19.477 15.319 19.8417 14.363C20.1873 13.4575 20.398 12.486 20.4482 11.4727C20.4561 11.3161 20.46 11.1584 20.46 10.9997C20.46 10.841 20.4558 10.6833 20.4482 10.5267V10.527ZM10.527 19.4688C9.49853 19.2762 8.52993 18.4595 7.76025 17.119C7.57736 16.8005 7.41102 16.4605 7.26124 16.1034C8.19016 15.8787 9.29566 15.699 10.5273 15.6611V19.4688H10.527ZM11.473 19.4688V15.6611C12.7047 15.6987 13.8102 15.8787 14.7391 16.1034C14.5891 16.4608 14.423 16.8005 14.2401 17.119C13.4702 18.4595 12.5016 19.2762 11.4733 19.4688H11.473ZM11.473 14.7149V11.473H15.6812C15.6407 12.8034 15.4292 14.0747 15.0663 15.2113C14.0512 14.9585 12.8324 14.7545 11.473 14.7149ZM15.6812 10.527H11.473V7.28509C12.8324 7.24567 14.0512 7.04149 15.0663 6.7887C15.4292 7.92522 15.6407 9.19653 15.6812 10.527ZM11.473 2.53118C12.5016 2.72379 13.4699 3.54051 14.2398 4.88093C14.4227 5.19942 14.5891 5.53919 14.7388 5.89657C13.8099 6.12125 12.7044 6.30125 11.4728 6.33883V2.53118H11.473ZM10.527 2.53118V6.33883C9.2954 6.30125 8.18989 6.12151 7.26097 5.89657C7.41102 5.53919 7.5771 5.19916 7.75999 4.88093C8.52993 3.54051 9.49853 2.72379 10.5268 2.53118H10.527ZM10.527 7.28509V10.527H6.31892C6.35938 9.19653 6.57092 7.92522 6.93382 6.7887C7.94893 7.04123 9.16769 7.24541 10.527 7.28483V7.28509ZM17.1367 5.1064C16.7764 5.26144 16.2756 5.45616 15.6572 5.64536C15.4801 5.20967 15.2817 4.79527 15.0602 4.40951C14.7667 3.89841 14.4443 3.45116 14.0985 3.07092C15.2557 3.52474 16.2898 4.22452 17.1367 5.10614V5.1064ZM7.90163 3.07118C7.55581 3.45142 7.23338 3.89867 6.93986 4.40977C6.71834 4.79553 6.51994 5.20993 6.34283 5.64562C5.72425 5.45642 5.2234 5.2617 4.86339 5.10666C5.71032 4.22504 6.74462 3.52526 7.90189 3.07118H7.90163ZM3.04707 7.96148C3.33849 7.20126 3.73686 6.49413 4.22221 5.85637C4.60403 6.03111 5.21945 6.28706 6.0225 6.53486C5.63674 7.75572 5.41286 9.11323 5.37213 10.527H2.49944C2.54884 9.62775 2.73883 8.76558 3.04707 7.96148ZM6.31892 11.473H10.527V14.7149C9.16769 14.7543 7.94866 14.9585 6.93382 15.211C6.57092 14.0745 6.35938 12.8032 6.31892 11.4727V11.473ZM4.86339 16.8936C5.22366 16.7385 5.72451 16.5438 6.34283 16.3546C6.51994 16.7903 6.71834 17.2047 6.93986 17.5904C7.23338 18.1015 7.55607 18.5488 7.90163 18.929C6.74435 18.4752 5.71006 17.7754 4.86313 16.8936H4.86339ZM14.0985 18.929C14.4443 18.5488 14.7667 18.1015 15.0602 17.5904C15.2817 17.2047 15.4801 16.7906 15.6572 16.3546C16.2758 16.5438 16.7767 16.7385 17.1367 16.8936C16.2898 17.7752 15.2555 18.475 14.0985 18.9288V18.929ZM18.953 14.039C18.6616 14.799 18.2632 15.5061 17.7781 16.1441C17.3963 15.9694 16.7809 15.7134 15.9778 15.4656C16.3636 14.2448 16.5875 12.8872 16.6282 11.4732H19.5009C19.4515 12.3725 19.2615 13.2349 18.9533 14.039H18.953Z" fill="white"/>
</g>
<defs>
<clipPath id="clip0_10532_544">
<rect width="22" height="22" fill="white"/>
</clipPath>
</defs>
</svg>
